<svg id="Layer_1" data-name="Layer 1" xmlns="http://www.w3.org/2000/svg" viewBox="0 0 158 188.11"><defs><style>.cls-1{fill:#ececec;}.cls-2{fill:#d9d9d9;}.cls-3{fill:#52af22;}.cls-4{fill:#51a321;}.cls-5{fill:#fff;}.cls-6{fill:#efefef;}.cls-7{fill:#ff8500;}.cls-7,.cls-8{fill-rule:evenodd;}.cls-8{fill:#ea6f00;}</style></defs><title>Reviwer-Level-2</title><g id="reviewer-level-2"><path class="cls-1" d="M304.49,439.93l78.05-47a1,1,0,0,0,.46-0.81V252.9a1,1,0,0,0-1.24-.9L304.3,277.68a1,1,0,0,1-.59,0L226.24,252a0.94,0.94,0,0,0-1.24.9V392.16a0.94,0.94,0,0,0,.46.81l78.06,47A0.94,0.94,0,0,0,304.49,439.93Z" transform="translate(-225 -251.96)"/><path class="cls-2" d="M303.51,439.93a0.94,0.94,0,0,0,1,0l78-47a1,1,0,0,0,.46-0.81V252.9a1,1,0,0,0-1.24-.9L304.3,277.68a1,1,0,0,1-.59,0" transform="translate(-225 -251.96)"/><path class="cls-3" d="M237,384.7V267l62.93,20.86a12.9,12.9,0,0,0,4.07.66,12.66,12.66,0,0,0,4.09-.67L371,267V384.7L304,425Z" transform="translate(-225 -251.96)"/><path class="cls-4" d="M304,288.52a12.66,12.66,0,0,0,4.09-.67L371,267V384.7L304,425" transform="translate(-225 -251.96)"/><polygon class="cls-5" points="14.34 134.02 78.94 173.04 144.67 134.04 105.88 107.93 97.67 110.38 78 103.38 59.33 107.04 51.41 107.07 14.34 134.02"/><path class="cls-5" d="M368.18,389a3,3,0,0,1-3-2.49l-2.61-15.27a3,3,0,0,1,.86-2.65l7.48-7.31-10.33-1.5a3,3,0,0,1-2.26-1.64l-4.61-9.37-4.61,9.37a3,3,0,0,1-2.23,1.64l-10,1.57,7.24,7.29a3,3,0,1,1-4.26,4.23L328.5,361.36a3,3,0,0,1,1.67-5.08L344.46,354l6.14-12.49a3.52,3.52,0,0,1,6.32,0L363.06,354l13.72,2a3.52,3.52,0,0,1,2,6l-9.94,9.72,2.35,13.72A3,3,0,0,1,368.18,389Z" transform="translate(-225 -251.96)"/><path class="cls-5" d="M239.34,389a3,3,0,0,1-3-3.51l2.35-13.72L228.78,362a3.52,3.52,0,0,1,2-6l13.73-2,6.13-12.47a3.52,3.52,0,0,1,6.32,0L263.06,354l13.72,2a3,3,0,0,1,1.73,5l-10.73,11.15a3,3,0,0,1-4.32-4.16l6.68-6.94-9.51-1.39a3,3,0,0,1-2.26-1.64l-4.61-9.37-4.61,9.37a3,3,0,0,1-2.26,1.64l-10.33,1.5,7.48,7.31a3,3,0,0,1,.86,2.65l-2.61,15.27A3,3,0,0,1,239.34,389Z" transform="translate(-225 -251.96)"/><path class="cls-5" d="M326.25,375.38a3.5,3.5,0,0,1-3.44-2.9l-4.67-26.84L333,331.07l-20.58-3-9.19-18.68-9.19,18.68-20.58,3,14.9,14.57-4.19,24a3.5,3.5,0,0,1-6.9-1.21l3.55-20.33-16.14-15.78a4.32,4.32,0,0,1,2.4-7.36l22.29-3.25,10-20.26a4.29,4.29,0,0,1,3.88-2.42h0a4.3,4.3,0,0,1,3.88,2.42l10,20.26,22.3,3.25a4.32,4.32,0,0,1,2.4,7.36l-16.14,15.78,4,23.21A3.51,3.51,0,0,1,326.25,375.38ZM305.66,304.5h0Z" transform="translate(-225 -251.96)"/><polygon class="cls-6" points="78.45 108.03 101.04 119.03 78.56 172.92 78.45 108.03"/><polygon class="cls-6" points="36.25 126.67 39.33 111.05 51.92 107.46 78.5 172.79 36.25 126.67"/><polygon class="cls-5" points="15.13 134.61 28.69 119.19 40.88 131.92 78.5 172.73 15.13 134.61"/><polygon class="cls-5" points="78.56 172.79 56.21 118.41 78.45 108.03 78.56 172.79"/><polygon class="cls-5" points="115.63 132.92 117.84 111.2 105.76 107.21 78.75 172.92 115.63 132.92"/><polygon class="cls-6" points="142.88 134.79 128.22 119.74 114.75 133.92 78.94 173.04 142.88 134.79"/><path class="cls-2" d="M303.46,359.49l0,4.55-22.17,11.52c-1.15.53-.77-1.06-0.77-1.06v-3.55Z" transform="translate(-225 -251.96)"/><path class="cls-2" d="M303.42,359.54l0.06,4.53,21.76,11.44c1.15,0.53.77-1.06,0.77-1.06V370.9Z" transform="translate(-225 -251.96)"/><path class="cls-2" d="M369.17,387.54l-15.34-8.43-13.67,7.21a0.52,0.52,0,0,1-.76-0.55L342,370.5l-11.06-10.82a0.65,0.65,0,0,1-.12-0.54l-1.36,3.2,10.25,9.92-3.19,16.26s-0.46,2,1.66,1.32L353.84,383l10.95,5.68Z" transform="translate(-225 -251.96)"/><path class="cls-2" d="M239.5,386.25l14.3-7.49L267.47,386a0.52,0.52,0,0,0,.76-0.55l-2.61-15.27,11.06-10.82s0.31,0.47.25,0.11l1.08,2.62-10.09,9.85,3.19,16.26s0.46,2-1.66,1.32l-15.67-6.81L243,388.36Z" transform="translate(-225 -251.96)"/><polygon class="cls-2" points="152 130.38 139.38 137 145.54 138.84 152 130.38"/><polygon class="cls-1" points="9.67 131.04 20.81 138.23 11.75 139.98 9.67 131.04"/><path class="cls-7" d="M353.76,379.31l-13.67,7.21a0.52,0.52,0,0,1-.76-0.55l2.61-15.27-11.06-10.82a0.52,0.52,0,0,1,.29-0.89l15.29-2.23,6.83-13.89a0.52,0.52,0,0,1,.94,0l6.83,13.89L376.35,359a0.52,0.52,0,0,1,.29.89L365.57,370.7,368.19,386a0.52,0.52,0,0,1-.76.55Z" transform="translate(-225 -251.96)"/><path class="cls-8" d="M353.83,342.74l7.25,14.06L376.41,359a0.52,0.52,0,0,1,.29.89L365.6,370.76l2.62,15.31a0.52,0.52,0,0,1-.76.55l-13.7-7.23" transform="translate(-225 -251.96)"/><path class="cls-7" d="M253.76,379.31l-13.67,7.21a0.52,0.52,0,0,1-.76-0.55l2.61-15.27-11.06-10.82a0.52,0.52,0,0,1,.29-0.89l15.29-2.23,6.83-13.89a0.52,0.52,0,0,1,.94,0l6.83,13.89L276.35,359a0.52,0.52,0,0,1,.29.89L265.57,370.7,268.19,386a0.52,0.52,0,0,1-.76.55Z" transform="translate(-225 -251.96)"/><path class="cls-8" d="M253.83,342.74l7.25,14.06L276.41,359a0.52,0.52,0,0,1,.29.89L265.6,370.76l2.62,15.31a0.52,0.52,0,0,1-.76.55l-13.7-7.23" transform="translate(-225 -251.96)"/><path class="cls-7" d="M303.26,360.44L281.7,371.81a0.82,0.82,0,0,1-1.2-.86l4.12-24.1-17.46-17.07a0.82,0.82,0,0,1,.46-1.4l24.12-3.52L302.52,303a0.83,0.83,0,0,1,1.48,0l10.78,21.91,24.12,3.52a0.82,0.82,0,0,1,.46,1.4L321.9,346.85l4.12,24.1a0.82,0.82,0,0,1-1.2.86Z" transform="translate(-225 -251.96)"/><path class="cls-8" d="M303.38,302.75l11.41,22.12,24.12,3.52a0.82,0.82,0,0,1,.46,1.4L321.9,346.85l4.12,24.1a0.82,0.82,0,0,1-1.2.86l-21.56-11.37" transform="translate(-225 -251.96)"/></g></svg>